<mxfile host="app.diagrams.net" modified="2023-10-29T00:50:20.208Z" agent="Mozilla/5.0 (Windows NT 10.0; Win64; x64) AppleWebKit/537.36 (KHTML, like Gecko) Chrome/118.0.0.0 Safari/537.36" etag="vctiLsbuhzpe81HFt1rv" version="22.0.8" type="device">
  <diagram name="Page-1" id="_uCLC_Zc-S5goLwwXV-r">
    <mxGraphModel dx="1290" dy="587" grid="1" gridSize="10" guides="1" tooltips="1" connect="1" arrows="1" fold="1" page="1" pageScale="1" pageWidth="850" pageHeight="1100" math="0" shadow="0">
      <root>
        <mxCell id="0" />
        <mxCell id="1" parent="0" />
        <mxCell id="HUx5lnDDboxmJK54oWbE-19" value="" style="rounded=0;whiteSpace=wrap;html=1;" vertex="1" parent="1">
          <mxGeometry x="30" y="360" width="450" height="215" as="geometry" />
        </mxCell>
        <mxCell id="HUx5lnDDboxmJK54oWbE-5" value="" style="edgeStyle=orthogonalEdgeStyle;rounded=0;orthogonalLoop=1;jettySize=auto;html=1;entryX=0.5;entryY=0;entryDx=0;entryDy=0;" edge="1" parent="1" source="HUx5lnDDboxmJK54oWbE-3" target="HUx5lnDDboxmJK54oWbE-6">
          <mxGeometry relative="1" as="geometry">
            <mxPoint x="240" y="70" as="targetPoint" />
          </mxGeometry>
        </mxCell>
        <mxCell id="HUx5lnDDboxmJK54oWbE-3" value="User types prompt into chat bar" style="rounded=1;whiteSpace=wrap;html=1;" vertex="1" parent="1">
          <mxGeometry x="40" y="40" width="120" height="60" as="geometry" />
        </mxCell>
        <mxCell id="HUx5lnDDboxmJK54oWbE-21" style="edgeStyle=orthogonalEdgeStyle;rounded=0;orthogonalLoop=1;jettySize=auto;html=1;entryX=0.5;entryY=0;entryDx=0;entryDy=0;" edge="1" parent="1" source="HUx5lnDDboxmJK54oWbE-6" target="HUx5lnDDboxmJK54oWbE-22">
          <mxGeometry relative="1" as="geometry">
            <mxPoint x="330" y="70" as="targetPoint" />
          </mxGeometry>
        </mxCell>
        <mxCell id="HUx5lnDDboxmJK54oWbE-6" value="User clicks &quot;Chat&quot;" style="rounded=0;whiteSpace=wrap;html=1;" vertex="1" parent="1">
          <mxGeometry x="40" y="130" width="120" height="60" as="geometry" />
        </mxCell>
        <mxCell id="HUx5lnDDboxmJK54oWbE-11" value="" style="edgeStyle=orthogonalEdgeStyle;rounded=0;orthogonalLoop=1;jettySize=auto;html=1;" edge="1" parent="1" source="HUx5lnDDboxmJK54oWbE-8" target="HUx5lnDDboxmJK54oWbE-10">
          <mxGeometry relative="1" as="geometry" />
        </mxCell>
        <mxCell id="HUx5lnDDboxmJK54oWbE-8" value="Add user&#39;s response to chat history" style="whiteSpace=wrap;html=1;rounded=0;" vertex="1" parent="1">
          <mxGeometry x="220" y="40" width="120" height="60" as="geometry" />
        </mxCell>
        <mxCell id="HUx5lnDDboxmJK54oWbE-25" value="" style="edgeStyle=orthogonalEdgeStyle;rounded=0;orthogonalLoop=1;jettySize=auto;html=1;" edge="1" parent="1" source="HUx5lnDDboxmJK54oWbE-10" target="HUx5lnDDboxmJK54oWbE-24">
          <mxGeometry relative="1" as="geometry" />
        </mxCell>
        <mxCell id="HUx5lnDDboxmJK54oWbE-10" value="Display updated &lt;br&gt;chat history in &lt;br&gt;the chat history box" style="whiteSpace=wrap;html=1;rounded=0;" vertex="1" parent="1">
          <mxGeometry x="220" y="130" width="120" height="60" as="geometry" />
        </mxCell>
        <mxCell id="HUx5lnDDboxmJK54oWbE-14" value="" style="edgeStyle=orthogonalEdgeStyle;rounded=0;orthogonalLoop=1;jettySize=auto;html=1;" edge="1" parent="1" source="HUx5lnDDboxmJK54oWbE-12" target="HUx5lnDDboxmJK54oWbE-13">
          <mxGeometry relative="1" as="geometry" />
        </mxCell>
        <mxCell id="HUx5lnDDboxmJK54oWbE-12" value="Create new branch from main for a feature" style="whiteSpace=wrap;html=1;" vertex="1" parent="1">
          <mxGeometry x="40" y="395" width="120" height="60" as="geometry" />
        </mxCell>
        <mxCell id="HUx5lnDDboxmJK54oWbE-17" value="" style="edgeStyle=orthogonalEdgeStyle;rounded=0;orthogonalLoop=1;jettySize=auto;html=1;entryX=0;entryY=0.5;entryDx=0;entryDy=0;" edge="1" parent="1" source="HUx5lnDDboxmJK54oWbE-12" target="HUx5lnDDboxmJK54oWbE-16">
          <mxGeometry relative="1" as="geometry">
            <Array as="points">
              <mxPoint x="100" y="525" />
            </Array>
          </mxGeometry>
        </mxCell>
        <mxCell id="HUx5lnDDboxmJK54oWbE-13" value="Merge&lt;br&gt;into the integration branch" style="whiteSpace=wrap;html=1;" vertex="1" parent="1">
          <mxGeometry x="320" y="395" width="130" height="60" as="geometry" />
        </mxCell>
        <mxCell id="HUx5lnDDboxmJK54oWbE-15" value="&lt;span style=&quot;color: rgb(0, 0, 0); font-family: Helvetica; font-size: 12px; font-style: normal; font-variant-ligatures: normal; font-variant-caps: normal; font-weight: 400; letter-spacing: normal; orphans: 2; text-indent: 0px; text-transform: none; widows: 2; word-spacing: 0px; -webkit-text-stroke-width: 0px; background-color: rgb(251, 251, 251); text-decoration-thickness: initial; text-decoration-style: initial; text-decoration-color: initial; float: none; display: inline !important;&quot;&gt;When a feature is in&lt;br&gt;a state that doesn&#39;t break &lt;br&gt;itself or other features&lt;/span&gt;" style="text;whiteSpace=wrap;html=1;align=center;" vertex="1" parent="1">
          <mxGeometry x="170" y="365" width="140" height="50" as="geometry" />
        </mxCell>
        <mxCell id="HUx5lnDDboxmJK54oWbE-16" value="Merge into &lt;br&gt;main branch" style="whiteSpace=wrap;html=1;" vertex="1" parent="1">
          <mxGeometry x="320" y="495" width="130" height="60" as="geometry" />
        </mxCell>
        <mxCell id="HUx5lnDDboxmJK54oWbE-18" value="When a feature is completed" style="text;whiteSpace=wrap;html=1;align=center;" vertex="1" parent="1">
          <mxGeometry x="160" y="485" width="140" height="50" as="geometry" />
        </mxCell>
        <mxCell id="HUx5lnDDboxmJK54oWbE-23" value="" style="edgeStyle=orthogonalEdgeStyle;rounded=0;orthogonalLoop=1;jettySize=auto;html=1;entryX=0;entryY=0.5;entryDx=0;entryDy=0;exitX=1;exitY=0.5;exitDx=0;exitDy=0;" edge="1" parent="1" source="HUx5lnDDboxmJK54oWbE-22" target="HUx5lnDDboxmJK54oWbE-8">
          <mxGeometry relative="1" as="geometry">
            <Array as="points">
              <mxPoint x="190" y="250" />
              <mxPoint x="190" y="70" />
            </Array>
          </mxGeometry>
        </mxCell>
        <mxCell id="HUx5lnDDboxmJK54oWbE-22" value="Disable chat button" style="rounded=0;whiteSpace=wrap;html=1;" vertex="1" parent="1">
          <mxGeometry x="40" y="220" width="120" height="60" as="geometry" />
        </mxCell>
        <mxCell id="HUx5lnDDboxmJK54oWbE-27" value="" style="edgeStyle=orthogonalEdgeStyle;rounded=0;orthogonalLoop=1;jettySize=auto;html=1;" edge="1" parent="1" source="HUx5lnDDboxmJK54oWbE-24" target="HUx5lnDDboxmJK54oWbE-26">
          <mxGeometry relative="1" as="geometry">
            <Array as="points">
              <mxPoint x="370" y="250" />
              <mxPoint x="370" y="70" />
            </Array>
          </mxGeometry>
        </mxCell>
        <mxCell id="HUx5lnDDboxmJK54oWbE-24" value="Send message to OpenAI Api (asyncronously)" style="whiteSpace=wrap;html=1;rounded=0;" vertex="1" parent="1">
          <mxGeometry x="220" y="220" width="120" height="60" as="geometry" />
        </mxCell>
        <mxCell id="HUx5lnDDboxmJK54oWbE-29" value="" style="edgeStyle=orthogonalEdgeStyle;rounded=0;orthogonalLoop=1;jettySize=auto;html=1;" edge="1" parent="1" source="HUx5lnDDboxmJK54oWbE-26" target="HUx5lnDDboxmJK54oWbE-28">
          <mxGeometry relative="1" as="geometry" />
        </mxCell>
        <mxCell id="HUx5lnDDboxmJK54oWbE-26" value="Add OpenAI response&lt;br&gt;(the enemy) &lt;br&gt;to the chat history" style="whiteSpace=wrap;html=1;rounded=0;" vertex="1" parent="1">
          <mxGeometry x="400" y="40" width="130" height="60" as="geometry" />
        </mxCell>
        <mxCell id="HUx5lnDDboxmJK54oWbE-33" value="" style="edgeStyle=orthogonalEdgeStyle;rounded=0;orthogonalLoop=1;jettySize=auto;html=1;" edge="1" parent="1" source="HUx5lnDDboxmJK54oWbE-28" target="HUx5lnDDboxmJK54oWbE-32">
          <mxGeometry relative="1" as="geometry" />
        </mxCell>
        <mxCell id="HUx5lnDDboxmJK54oWbE-28" value="Display updated &lt;br&gt;chat history in &lt;br&gt;the chat history box" style="whiteSpace=wrap;html=1;rounded=0;" vertex="1" parent="1">
          <mxGeometry x="400" y="130" width="130" height="60" as="geometry" />
        </mxCell>
        <mxCell id="HUx5lnDDboxmJK54oWbE-32" value="Enable chat button" style="rounded=1;whiteSpace=wrap;html=1;" vertex="1" parent="1">
          <mxGeometry x="405" y="230" width="120" height="60" as="geometry" />
        </mxCell>
      </root>
    </mxGraphModel>
  </diagram>
</mxfile>
